# This file uses centimeters as units for non-parametric coordinates.

mtllib inverter.mtl
g default
v 0.999498 0.400000 0.600000
v 0.999498 0.600000 0.600000
v -0.000502 0.400000 0.600000
v -0.000502 0.600000 0.600000
v -0.000501 0.400000 0.400000
v -0.000501 0.600000 0.400000
v 0.999498 0.400000 0.400000
v 0.999498 0.600000 0.400000
v 0.749499 0.600000 0.400000
v 0.749499 0.400000 0.400000
v 0.749499 0.400000 0.600000
v 0.749499 0.600000 0.600000
v 0.249499 0.600000 0.400000
v 0.249499 0.400000 0.400000
v 0.249499 0.400000 0.600000
v 0.249499 0.600000 0.600000
v 0.249498 0.200000 0.200000
v 0.249499 0.800000 0.200000
v 0.249499 0.200000 0.800000
v 0.249498 0.800000 0.800000
vt 0.375000 0.000000
vt 0.625000 0.000000
vt 0.375000 0.250000
vt 0.625000 0.250000
vt 0.375000 0.500000
vt 0.625000 0.500000
vt 0.375000 0.750000
vt 0.625000 0.750000
vt 0.375000 1.000000
vt 0.625000 1.000000
vt 0.875000 0.000000
vt 0.875000 0.250000
vt 0.125000 0.000000
vt 0.125000 0.250000
vt 0.625000 0.687500
vt 0.875000 0.062500
vt 0.125000 0.062500
vt 0.375000 0.687500
vt 0.375000 0.062500
vt 0.625000 0.062500
vt 0.625000 0.562500
vt 0.875000 0.187500
vt 0.125000 0.187500
vt 0.375000 0.562500
vt 0.375000 0.187500
vt 0.625000 0.187500
vt 0.375000 0.562500
vt 0.625000 0.562500
vt 0.375000 0.187500
vt 0.125000 0.187500
vt 0.625000 0.187500
vt 0.875000 0.187500
vn 0.000000 -0.000000 1.000000
vn 0.000000 -0.000000 1.000000
vn 0.000000 -0.000000 1.000000
vn 0.000000 -0.000000 1.000000
vn -1.000000 0.000000 -0.000000
vn -1.000000 0.000000 -0.000000
vn -1.000000 0.000000 -0.000000
vn -1.000000 0.000000 -0.000000
vn 0.000000 0.000000 -1.000000
vn 0.000000 0.000000 -1.000000
vn 0.000000 0.000000 -1.000000
vn 0.000000 0.000000 -1.000000
vn 1.000000 -0.000000 0.000000
vn 1.000000 -0.000000 0.000000
vn 1.000000 -0.000000 0.000000
vn 1.000000 -0.000000 0.000000
vn 0.000000 1.000000 0.000000
vn 0.000000 1.000000 0.000000
vn 0.000000 1.000000 0.000000
vn 0.000000 1.000000 0.000000
vn 0.000001 -1.000000 -0.000000
vn 0.000001 -1.000000 -0.000000
vn 0.000001 -1.000000 -0.000000
vn 0.000001 -1.000000 -0.000000
vn -0.000000 0.000000 -1.000000
vn -0.000000 0.000000 -1.000000
vn -0.000000 0.000000 -1.000000
vn -0.000000 0.000000 -1.000000
vn 0.000000 -1.000000 0.000000
vn 0.000000 -1.000000 0.000000
vn 0.000000 -1.000000 0.000000
vn 0.000000 -1.000000 0.000000
vn 0.000000 -0.000000 1.000000
vn 0.000000 -0.000000 1.000000
vn 0.000000 -0.000000 1.000000
vn 0.000000 -0.000000 1.000000
vn 0.000000 1.000000 0.000000
vn 0.000000 1.000000 0.000000
vn 0.000000 1.000000 0.000000
vn 0.000000 1.000000 0.000000
vn 0.371391 -0.000000 -0.928477
vn 0.371391 -0.000000 -0.928477
vn 0.371391 -0.000000 -0.928477
vn 0.371391 -0.000000 -0.928477
vn 0.371391 -0.928477 -0.000000
vn 0.371391 -0.928477 -0.000000
vn 0.371391 -0.928477 -0.000000
vn 0.371391 -0.928477 -0.000000
vn 0.371391 0.000000 0.928477
vn 0.371391 0.000000 0.928477
vn 0.371391 0.000000 0.928477
vn 0.371391 0.000000 0.928477
vn 0.371391 0.928477 0.000000
vn 0.371391 0.928477 0.000000
vn 0.371391 0.928477 0.000000
vn 0.371391 0.928477 0.000000
vn -1.000000 0.000000 0.000000
vn -1.000000 -0.000000 -0.000000
vn -1.000000 -0.000000 0.000000
vn -1.000000 0.000000 0.000000
vn -1.000000 0.000000 -0.000000
vn -1.000000 -0.000000 -0.000000
vn -1.000000 -0.000000 -0.000000
vn -1.000000 -0.000000 -0.000000
s off
g pasted__pasted__pCube8 pasted__group24 group30
usemtl initialShadingGroup
f 15/25/1 16/26/2 4/4/3 3/3/4
f 3/3/5 4/4/6 6/6/7 5/5/8
f 5/5/9 6/6/10 13/21/11 14/24/12
f 7/7/13 8/8/14 2/10/15 1/9/16
f 16/26/17 13/22/18 6/12/19 4/4/20
f 14/23/21 15/25/22 3/3/23 5/14/24
f 10/18/25 9/15/26 8/8/27 7/7/28
f 7/13/29 1/1/30 11/19/31 10/17/32
f 1/1/33 2/2/34 12/20/35 11/19/36
f 2/2/37 8/11/38 9/16/39 12/20/40
f 10/18/41 17/27/42 18/28/43 9/15/44
f 11/19/45 19/29/46 17/30/47 10/17/48
f 12/20/49 20/31/50 19/29/51 11/19/52
f 9/16/53 18/32/54 20/31/55 12/20/56
s 1
f 14/24/57 13/21/58 18/28/59 17/27/60
f 15/25/61 14/23/57 17/30/60 19/29/62
f 16/26/63 15/25/61 19/29/62 20/31/64
f 13/22/58 16/26/63 20/31/64 18/32/59
