# This file uses centimeters as units for non-parametric coordinates.

mtllib OrGate.mtl
g default
v -0.000059 0.400000 1.000400
v 0.681162 0.400000 0.965485
v -0.000059 0.600000 1.000400
v 0.681162 0.600000 0.965485
v -0.000059 0.600000 0.000400
v 0.681162 0.600000 0.031626
v -0.000059 0.400000 0.000400
v 0.681162 0.400000 0.031626
v 0.460763 0.400000 1.000400
v 0.460763 0.600000 1.000400
v 0.460763 0.600000 0.000400
v 0.460763 0.400000 0.000400
v 0.333275 0.400000 1.000400
v 0.333275 0.600000 1.000400
v 0.333275 0.600000 0.000400
v 0.333275 0.400000 0.000400
v 0.999941 0.400000 0.500400
v 0.666608 0.400000 0.500400
v 0.395047 0.400000 0.500400
v 0.384074 0.400000 0.500400
v 0.384074 0.600000 0.500400
v 0.395047 0.600000 0.500400
v 0.666608 0.600000 0.500400
v 0.999941 0.600000 0.500400
v 0.937784 0.400000 0.250400
v 0.666608 0.400000 0.250400
v 0.395047 0.400000 0.250400
v 0.256873 0.400000 0.250400
v 0.256873 0.600000 0.250400
v 0.395047 0.600000 0.250400
v 0.666608 0.600000 0.250400
v 0.937784 0.600000 0.250400
v 0.937784 0.400000 0.750400
v 0.666608 0.400000 0.750400
v 0.395047 0.400000 0.750400
v 0.256873 0.400000 0.750400
v 0.256873 0.600000 0.750400
v 0.395047 0.600000 0.750400
v 0.666608 0.600000 0.750400
v 0.937784 0.600000 0.750400
vt 0.375000 0.000000
vt 0.625000 0.000000
vt 0.375000 0.250000
vt 0.625000 0.250000
vt 0.375000 0.500000
vt 0.625000 0.500000
vt 0.375000 0.750000
vt 0.625000 0.750000
vt 0.375000 1.000000
vt 0.625000 1.000000
vt 0.875000 0.000000
vt 0.875000 0.250000
vt 0.125000 0.000000
vt 0.125000 0.250000
vt 0.541667 0.000000
vt 0.541667 1.000000
vt 0.541667 0.250000
vt 0.541667 0.500000
vt 0.541667 0.750000
vt 0.458333 0.000000
vt 0.458333 1.000000
vt 0.458333 0.250000
vt 0.458333 0.500000
vt 0.458333 0.750000
vt 0.625000 0.875000
vt 0.750000 0.000000
vt 0.541667 0.875000
vt 0.458333 0.875000
vt 0.250000 0.000000
vt 0.375000 0.875000
vt 0.250000 0.250000
vt 0.375000 0.375000
vt 0.458333 0.375000
vt 0.541667 0.375000
vt 0.625000 0.375000
vt 0.750000 0.250000
vt 0.625000 0.812500
vt 0.812500 0.000000
vt 0.541667 0.812500
vt 0.458333 0.812500
vt 0.187500 0.000000
vt 0.375000 0.812500
vt 0.187500 0.250000
vt 0.375000 0.437500
vt 0.458333 0.437500
vt 0.541667 0.437500
vt 0.625000 0.437500
vt 0.812500 0.250000
vt 0.625000 0.937500
vt 0.687500 0.000000
vt 0.541667 0.937500
vt 0.458333 0.937500
vt 0.312500 0.000000
vt 0.375000 0.937500
vt 0.312500 0.250000
vt 0.375000 0.312500
vt 0.458333 0.312500
vt 0.541667 0.312500
vt 0.625000 0.312500
vt 0.687500 0.250000
vn 0.000000 0.000000 1.000000
vn 0.000000 0.000000 1.000000
vn 0.000000 0.000000 1.000000
vn 0.000000 0.000000 1.000000
vn 0.000000 1.000000 0.000000
vn 0.000000 1.000000 0.000000
vn 0.000000 1.000000 0.000000
vn 0.000000 1.000000 0.000000
vn 0.000000 0.000000 -1.000000
vn 0.000000 0.000000 -1.000000
vn 0.000000 0.000000 -1.000000
vn 0.000000 0.000000 -1.000000
vn 0.000000 -1.000000 0.000000
vn 0.000000 -1.000000 0.000000
vn 0.000000 -1.000000 0.000000
vn 0.000000 -1.000000 0.000000
vn 0.826915 0.000000 -0.562327
vn 0.826915 0.000000 -0.562327
vn 0.648757 0.000000 -0.760996
vn 0.648757 0.000000 -0.760996
vn -0.697373 0.000000 0.716709
vn -0.792994 0.000000 0.609230
vn -0.792994 0.000000 0.609230
vn -0.697373 0.000000 0.716709
vn 0.099861 0.000000 0.995001
vn 0.156466 0.000000 0.987683
vn 0.156466 0.000000 0.987683
vn 0.099861 0.000000 0.995001
vn 0.000000 1.000000 0.000000
vn 0.000000 1.000000 0.000000
vn 0.000000 1.000000 0.000000
vn 0.000000 1.000000 0.000000
vn 0.089401 0.000000 -0.995996
vn 0.089401 0.000000 -0.995996
vn 0.140281 0.000000 -0.990112
vn 0.140281 0.000000 -0.990112
vn 0.000000 -1.000000 0.000000
vn 0.000000 -1.000000 0.000000
vn 0.000000 -1.000000 0.000000
vn 0.000000 -1.000000 0.000000
vn 0.000000 -1.000000 0.000000
vn 0.000000 -1.000000 0.000000
vn 0.000000 -1.000000 0.000000
vn 0.000000 -1.000000 0.000000
vn 0.000000 -1.000000 0.000000
vn 0.000000 -1.000000 0.000000
vn 0.000000 -1.000000 0.000000
vn 0.000000 -1.000000 0.000000
vn -1.000000 0.000000 0.000000
vn -1.000000 0.000000 0.000000
vn -0.792994 0.000000 -0.609230
vn -0.792994 0.000000 -0.609230
vn 0.000000 1.000000 -0.000000
vn 0.000000 1.000000 -0.000000
vn 0.000000 1.000000 0.000000
vn 0.000000 1.000000 0.000000
vn 0.000000 1.000000 0.000000
vn 0.000000 1.000000 0.000000
vn 0.000000 1.000000 0.000000
vn 0.000000 1.000000 0.000000
vn 0.824841 0.000000 0.565365
vn 0.824841 0.000000 0.565365
vn 1.000000 0.000000 -0.000000
vn 1.000000 0.000000 -0.000000
vn 0.000000 -1.000000 0.000000
vn 0.000000 -1.000000 0.000000
vn 0.000000 -1.000000 0.000000
vn 0.000000 -1.000000 0.000000
vn -0.697373 0.000000 -0.716709
vn -0.697373 0.000000 -0.716709
vn 0.000000 1.000000 -0.000000
vn 0.000000 1.000000 -0.000000
vn 0.000000 1.000000 0.000000
vn 0.000000 1.000000 0.000000
vn 0.642355 0.000000 0.766408
vn 0.642355 0.000000 0.766408
s 1
g pasted__pCube11 group33
usemtl initialShadingGroup
f 1/1/1 13/20/2 14/22/3 3/3/4
s 2
f 29/44/5 30/45/6 15/23/7 5/5/8
s 3
f 5/5/9 15/23/10 16/24/11 7/7/12
s 4
f 7/7/13 16/24/14 27/40/15 28/42/16
s 5
f 32/48/17 25/38/18 8/11/19 6/12/20
s 6
f 7/13/21 28/41/22 29/43/23 5/14/24
s 1
f 9/15/25 2/2/26 4/4/27 10/17/28
s 2
f 11/18/29 31/46/30 32/47/31 6/6/32
s 3
f 12/19/33 11/18/34 6/6/35 8/8/36
s 4
f 26/39/37 12/19/38 8/8/39 25/37/40
s 1
f 13/20/2 9/15/25 10/17/28 14/22/3
s 2
f 15/23/7 30/45/6 31/46/30 11/18/29
s 3
f 16/24/11 15/23/10 11/18/34 12/19/33
s 4
f 27/40/15 16/24/14 12/19/38 26/39/37
f 34/51/41 18/27/42 17/25/43 33/49/44
f 35/52/45 19/28/46 18/27/42 34/51/41
f 20/30/47 19/28/46 35/52/45 36/54/48
s 6
f 21/31/49 20/29/50 36/53/51 37/55/52
s 2
f 37/56/53 38/57/54 22/33/55 21/32/56
f 23/34/57 22/33/55 38/57/54 39/58/58
f 24/35/59 23/34/57 39/58/58 40/59/60
s 5
f 40/60/61 33/50/62 17/26/63 24/36/64
s 4
f 18/27/42 26/39/37 25/37/40 17/25/43
f 19/28/46 27/40/15 26/39/37 18/27/42
f 28/42/16 27/40/15 19/28/46 20/30/47
s 6
f 29/43/23 28/41/22 20/29/50 21/31/49
s 2
f 21/32/56 22/33/55 30/45/6 29/44/5
f 31/46/30 30/45/6 22/33/55 23/34/57
f 32/47/31 31/46/30 23/34/57 24/35/59
s 5
f 24/36/64 17/26/63 25/38/18 32/48/17
s 4
f 9/16/65 34/51/41 33/49/44 2/10/66
f 13/21/67 35/52/45 34/51/41 9/16/65
f 36/54/48 35/52/45 13/21/67 1/9/68
s 6
f 37/55/52 36/53/51 1/1/69 3/3/70
s 2
f 3/3/71 14/22/72 38/57/54 37/56/53
f 39/58/58 38/57/54 14/22/72 10/17/73
f 40/59/60 39/58/58 10/17/73 4/4/74
s 5
f 2/2/75 33/50/62 40/60/61 4/4/76
