# This file uses centimeters as units for non-parametric coordinates.

mtllib wiretest.mtl
g default
v 0.439809 0.500015 0.531003
v 0.439809 1.000016 0.531003
v 0.560252 1.000016 0.531003
v 0.560252 0.500015 0.531003
v 0.439809 0.500015 0.470782
v 0.439809 1.000016 0.470782
v 0.560252 1.000016 0.470782
v 0.560252 0.500015 0.470782
v 0.530141 1.000016 0.561114
v 0.530141 1.000016 0.440671
v 0.530141 0.500015 0.440671
v 0.530141 0.500015 0.561114
v 0.469920 1.000016 0.561114
v 0.469920 1.000016 0.440671
v 0.469920 0.500015 0.440671
v 0.469920 0.500015 0.561114
vt 0.625000 0.937500
vt 0.687500 0.000000
vt 0.312500 0.000000
vt 0.375000 0.937500
vt 0.312500 0.250000
vt 0.375000 0.312500
vt 0.625000 0.312500
vt 0.687500 0.250000
vt 0.625000 0.812500
vt 0.812500 0.000000
vt 0.187500 0.000000
vt 0.375000 0.812500
vt 0.187500 0.250000
vt 0.375000 0.437500
vt 0.625000 0.437500
vt 0.812500 0.250000
vt 0.375000 0.187500
vt 0.125000 0.187500
vt 0.375000 0.562500
vt 0.625000 0.562500
vt 0.875000 0.187500
vt 0.625000 0.187500
vt 0.375000 0.062500
vt 0.125000 0.062500
vt 0.375000 0.687500
vt 0.625000 0.687500
vt 0.875000 0.062500
vt 0.625000 0.062500
vn -0.316227 0.000000 0.948684
vn -0.316227 0.000000 0.948684
vn -0.948683 0.000000 0.316229
vn -0.948683 0.000000 0.316229
vn -0.948683 0.000000 -0.316229
vn -0.948683 0.000000 -0.316229
vn -0.316227 0.000000 -0.948684
vn -0.316227 0.000000 -0.948684
vn 0.000000 1.000000 0.000000
vn 0.000000 1.000000 0.000000
vn 0.000000 1.000000 0.000000
vn 0.948683 -0.000000 0.316229
vn 0.948683 -0.000000 0.316229
vn 0.316227 -0.000000 0.948684
vn 0.316227 -0.000000 0.948684
vn 0.948683 -0.000000 -0.316229
vn 0.948683 -0.000000 -0.316229
vn 0.316227 -0.000000 -0.948684
vn 0.316227 -0.000000 -0.948684
vn -0.000000 -1.000000 0.000000
vn 0.000000 -1.000000 0.000000
vn 0.000000 -1.000000 0.000000
vn 0.000000 1.000000 0.000000
vn 0.000000 1.000000 0.000000
vn 0.000000 1.000000 0.000000
vn 0.000000 1.000000 0.000000
vn 0.000000 1.000000 0.000000
vn -0.000000 -1.000000 0.000000
vn -0.000000 -1.000000 0.000000
vn -0.000000 -1.000000 0.000000
vn 0.000000 -1.000000 0.000000
vn -0.000000 -1.000000 0.000000
s 1
g pasted__pasted__pasted__pasted__pCube2 pasted__pasted__pasted__group pasted__pasted__group4 pasted__group15 group16
usemtl initialShadingGroup
f 16/28/1 13/23/2 2/4/3 1/1/4
f 5/9/5 6/12/6 14/25/7 15/26/8
s 2
f 9/17/9 3/5/10 13/23/11
s 1
f 4/7/12 3/6/13 9/17/14 12/22/15
f 2/4/3 6/12/6 5/9/5 1/1/4
f 4/7/12 8/15/16 7/14/17 3/6/13
f 11/20/18 10/19/19 7/14/17 8/15/16
f 11/20/18 15/26/8 14/25/7 10/19/19
f 9/17/14 13/23/2 16/28/1 12/22/15
s 4
f 8/16/20 16/28/21 1/2/22
s 2
f 13/23/11 3/5/10 7/13/23
f 6/11/24 10/18/25 14/24/26
f 13/23/11 7/13/23 2/3/27
f 2/3/27 7/13/23 10/18/25
f 2/3/27 10/18/25 6/11/24
s 4
f 12/22/28 16/28/21 4/8/29
f 4/8/29 16/28/21 8/16/20
f 8/16/20 1/2/22 11/21/30
f 11/21/30 1/2/22 5/10/31
f 11/21/30 5/10/31 15/27/32
g default
v 0.439809 0.000015 0.531003
v 0.439809 0.500016 0.531003
v 0.560252 0.500016 0.531003
v 0.560252 0.000015 0.531003
v 0.439809 0.000015 0.470782
v 0.439809 0.500016 0.470782
v 0.560252 0.500016 0.470782
v 0.560252 0.000015 0.470782
v 0.530141 0.500016 0.561114
v 0.530141 0.500016 0.440671
v 0.530141 0.000015 0.440671
v 0.530141 0.000015 0.561114
v 0.469920 0.500016 0.561114
v 0.469920 0.500016 0.440671
v 0.469920 0.000015 0.440671
v 0.469920 0.000015 0.561114
vt 0.625000 0.937500
vt 0.687500 0.000000
vt 0.312500 0.000000
vt 0.375000 0.937500
vt 0.312500 0.250000
vt 0.375000 0.312500
vt 0.625000 0.312500
vt 0.687500 0.250000
vt 0.625000 0.812500
vt 0.812500 0.000000
vt 0.187500 0.000000
vt 0.375000 0.812500
vt 0.187500 0.250000
vt 0.375000 0.437500
vt 0.625000 0.437500
vt 0.812500 0.250000
vt 0.375000 0.187500
vt 0.125000 0.187500
vt 0.375000 0.562500
vt 0.625000 0.562500
vt 0.875000 0.187500
vt 0.625000 0.187500
vt 0.375000 0.062500
vt 0.125000 0.062500
vt 0.375000 0.687500
vt 0.625000 0.687500
vt 0.875000 0.062500
vt 0.625000 0.062500
vn -0.316227 0.000000 0.948684
vn -0.316227 0.000000 0.948684
vn -0.948683 0.000000 0.316229
vn -0.948683 0.000000 0.316229
vn -0.948683 0.000000 -0.316229
vn -0.948683 0.000000 -0.316229
vn -0.316227 0.000000 -0.948684
vn -0.316227 0.000000 -0.948684
vn 0.000000 1.000000 0.000000
vn 0.000000 1.000000 0.000000
vn 0.000000 1.000000 0.000000
vn 0.948683 -0.000000 0.316229
vn 0.948683 -0.000000 0.316229
vn 0.316227 -0.000000 0.948684
vn 0.316227 -0.000000 0.948684
vn 0.948683 -0.000000 -0.316229
vn 0.948683 -0.000000 -0.316229
vn 0.316227 -0.000000 -0.948684
vn 0.316227 -0.000000 -0.948684
vn -0.000000 -1.000000 0.000000
vn 0.000000 -1.000000 0.000000
vn 0.000000 -1.000000 0.000000
vn 0.000000 1.000000 0.000000
vn 0.000000 1.000000 0.000000
vn 0.000000 1.000000 0.000000
vn 0.000000 1.000000 0.000000
vn 0.000000 1.000000 0.000000
vn -0.000000 -1.000000 0.000000
vn -0.000000 -1.000000 0.000000
vn -0.000000 -1.000000 0.000000
vn 0.000000 -1.000000 0.000000
vn -0.000000 -1.000000 0.000000
s 1
g pasted__pasted__pasted__pasted__pasted__pCube2 pasted__pasted__pasted__pasted__group pasted__pasted__pasted__group4 pasted__pasted__group15 pasted__group16 group17
usemtl initialShadingGroup
f 32/56/33 29/51/34 18/32/35 17/29/36
f 21/37/37 22/40/38 30/53/39 31/54/40
s 2
f 25/45/41 19/33/42 29/51/43
s 1
f 20/35/44 19/34/45 25/45/46 28/50/47
f 18/32/35 22/40/38 21/37/37 17/29/36
f 20/35/44 24/43/48 23/42/49 19/34/45
f 27/48/50 26/47/51 23/42/49 24/43/48
f 27/48/50 31/54/40 30/53/39 26/47/51
f 25/45/46 29/51/34 32/56/33 28/50/47
s 4
f 24/44/52 32/56/53 17/30/54
s 2
f 29/51/43 19/33/42 23/41/55
f 22/39/56 26/46/57 30/52/58
f 29/51/43 23/41/55 18/31/59
f 18/31/59 23/41/55 26/46/57
f 18/31/59 26/46/57 22/39/56
s 4
f 28/50/60 32/56/53 20/36/61
f 20/36/61 32/56/53 24/44/52
f 24/44/52 17/30/54 27/49/62
f 27/49/62 17/30/54 21/38/63
f 27/49/62 21/38/63 31/55/64
g default
v 0.500016 0.439778 0.531003
v 0.000015 0.439778 0.531003
v 0.000015 0.560222 0.531003
v 0.500016 0.560222 0.531003
v 0.500016 0.439778 0.470782
v 0.000015 0.439778 0.470782
v 0.000015 0.560222 0.470782
v 0.500016 0.560222 0.470782
v 0.000015 0.530111 0.561114
v 0.000015 0.530111 0.440671
v 0.500016 0.530111 0.440671
v 0.500016 0.530111 0.561114
v 0.000015 0.469889 0.561114
v 0.000015 0.469889 0.440671
v 0.500016 0.469889 0.440671
v 0.500016 0.469889 0.561114
vt 0.625000 0.937500
vt 0.687500 0.000000
vt 0.312500 0.000000
vt 0.375000 0.937500
vt 0.312500 0.250000
vt 0.375000 0.312500
vt 0.625000 0.312500
vt 0.687500 0.250000
vt 0.625000 0.812500
vt 0.812500 0.000000
vt 0.187500 0.000000
vt 0.375000 0.812500
vt 0.187500 0.250000
vt 0.375000 0.437500
vt 0.625000 0.437500
vt 0.812500 0.250000
vt 0.375000 0.187500
vt 0.125000 0.187500
vt 0.375000 0.562500
vt 0.625000 0.562500
vt 0.875000 0.187500
vt 0.625000 0.187500
vt 0.375000 0.062500
vt 0.125000 0.062500
vt 0.375000 0.687500
vt 0.625000 0.687500
vt 0.875000 0.062500
vt 0.625000 0.062500
vn 0.000000 -0.316227 0.948684
vn 0.000000 -0.316227 0.948684
vn 0.000000 -0.948683 0.316229
vn 0.000000 -0.948683 0.316229
vn 0.000000 -0.948683 -0.316229
vn 0.000000 -0.948683 -0.316229
vn 0.000000 -0.316227 -0.948684
vn 0.000000 -0.316227 -0.948684
vn -1.000000 0.000000 0.000000
vn -1.000000 0.000000 0.000000
vn -1.000000 0.000000 0.000000
vn 0.000000 0.948683 0.316229
vn 0.000000 0.948683 0.316229
vn 0.000000 0.316227 0.948684
vn 0.000000 0.316227 0.948684
vn 0.000000 0.948683 -0.316229
vn 0.000000 0.948683 -0.316229
vn 0.000000 0.316227 -0.948684
vn 0.000000 0.316227 -0.948684
vn 1.000000 -0.000000 0.000000
vn 1.000000 0.000000 0.000000
vn 1.000000 0.000000 0.000000
vn -1.000000 0.000000 0.000000
vn -1.000000 0.000000 0.000000
vn -1.000000 0.000000 0.000000
vn -1.000000 0.000000 0.000000
vn -1.000000 0.000000 0.000000
vn 1.000000 0.000000 0.000000
vn 1.000000 -0.000000 0.000000
vn 1.000000 -0.000000 0.000000
vn 1.000000 0.000000 0.000000
vn 1.000000 0.000000 0.000000
s 1
g pasted__pasted__pasted__pCube2 pasted__pasted__group pasted__group4 group18
usemtl initialShadingGroup
f 48/84/65 45/79/66 34/60/67 33/57/68
f 37/65/69 38/68/70 46/81/71 47/82/72
s 2
f 41/73/73 35/61/74 45/79/75
s 1
f 36/63/76 35/62/77 41/73/78 44/78/79
f 34/60/67 38/68/70 37/65/69 33/57/68
f 36/63/76 40/71/80 39/70/81 35/62/77
f 43/76/82 42/75/83 39/70/81 40/71/80
f 43/76/82 47/82/72 46/81/71 42/75/83
f 41/73/78 45/79/66 48/84/65 44/78/79
s 4
f 40/72/84 48/84/85 33/58/86
s 2
f 45/79/75 35/61/74 39/69/87
f 38/67/88 42/74/89 46/80/90
f 45/79/75 39/69/87 34/59/91
f 34/59/91 39/69/87 42/74/89
f 34/59/91 42/74/89 38/67/88
s 4
f 44/78/92 48/84/85 36/64/93
f 36/64/93 48/84/85 40/72/84
f 40/72/84 33/58/86 43/77/94
f 43/77/94 33/58/86 37/66/95
f 43/77/94 37/66/95 47/83/96
g default
v 0.999695 0.439778 0.531003
v 0.499695 0.439778 0.531003
v 0.499695 0.560222 0.531003
v 0.999695 0.560222 0.531003
v 0.999695 0.439778 0.470782
v 0.499695 0.439778 0.470782
v 0.499695 0.560222 0.470782
v 0.999695 0.560222 0.470782
v 0.499695 0.530111 0.561114
v 0.499695 0.530111 0.440671
v 0.999695 0.530111 0.440671
v 0.999695 0.530111 0.561114
v 0.499695 0.469889 0.561114
v 0.499695 0.469889 0.440671
v 0.999695 0.469889 0.440671
v 0.999695 0.469889 0.561114
vt 0.625000 0.937500
vt 0.687500 0.000000
vt 0.312500 0.000000
vt 0.375000 0.937500
vt 0.312500 0.250000
vt 0.375000 0.312500
vt 0.625000 0.312500
vt 0.687500 0.250000
vt 0.625000 0.812500
vt 0.812500 0.000000
vt 0.187500 0.000000
vt 0.375000 0.812500
vt 0.187500 0.250000
vt 0.375000 0.437500
vt 0.625000 0.437500
vt 0.812500 0.250000
vt 0.375000 0.187500
vt 0.125000 0.187500
vt 0.375000 0.562500
vt 0.625000 0.562500
vt 0.875000 0.187500
vt 0.625000 0.187500
vt 0.375000 0.062500
vt 0.125000 0.062500
vt 0.375000 0.687500
vt 0.625000 0.687500
vt 0.875000 0.062500
vt 0.625000 0.062500
vn 0.000000 -0.316227 0.948684
vn 0.000000 -0.316227 0.948684
vn 0.000000 -0.948683 0.316229
vn 0.000000 -0.948683 0.316229
vn 0.000000 -0.948683 -0.316229
vn 0.000000 -0.948683 -0.316229
vn 0.000000 -0.316227 -0.948684
vn 0.000000 -0.316227 -0.948684
vn -1.000000 0.000000 0.000000
vn -1.000000 0.000000 0.000000
vn -1.000000 0.000000 0.000000
vn 0.000000 0.948683 0.316229
vn 0.000000 0.948683 0.316229
vn 0.000000 0.316227 0.948684
vn 0.000000 0.316227 0.948684
vn 0.000000 0.948683 -0.316229
vn 0.000000 0.948683 -0.316229
vn 0.000000 0.316227 -0.948684
vn 0.000000 0.316227 -0.948684
vn 1.000000 -0.000000 0.000000
vn 1.000000 0.000000 0.000000
vn 1.000000 0.000000 0.000000
vn -1.000000 0.000000 0.000000
vn -1.000000 0.000000 0.000000
vn -1.000000 0.000000 0.000000
vn -1.000000 0.000000 0.000000
vn -1.000000 0.000000 0.000000
vn 1.000000 0.000000 0.000000
vn 1.000000 -0.000000 0.000000
vn 1.000000 -0.000000 0.000000
vn 1.000000 0.000000 0.000000
vn 1.000000 0.000000 0.000000
s 1
g pasted__pasted__pasted__pasted__pCube2 pasted__pasted__pasted__group pasted__pasted__group4 pasted__group18 group20
usemtl initialShadingGroup
f 64/112/97 61/107/98 50/88/99 49/85/100
f 53/93/101 54/96/102 62/109/103 63/110/104
s 2
f 57/101/105 51/89/106 61/107/107
s 1
f 52/91/108 51/90/109 57/101/110 60/106/111
f 50/88/99 54/96/102 53/93/101 49/85/100
f 52/91/108 56/99/112 55/98/113 51/90/109
f 59/104/114 58/103/115 55/98/113 56/99/112
f 59/104/114 63/110/104 62/109/103 58/103/115
f 57/101/110 61/107/98 64/112/97 60/106/111
s 4
f 56/100/116 64/112/117 49/86/118
s 2
f 61/107/107 51/89/106 55/97/119
f 54/95/120 58/102/121 62/108/122
f 61/107/107 55/97/119 50/87/123
f 50/87/123 55/97/119 58/102/121
f 50/87/123 58/102/121 54/95/120
s 4
f 60/106/124 64/112/117 52/92/125
f 52/92/125 64/112/117 56/100/116
f 56/100/116 49/86/118 59/105/126
f 59/105/126 49/86/118 53/94/127
f 59/105/126 53/94/127 63/111/128
g default
v 0.530141 0.439778 0.001278
v 0.530141 0.439778 0.501279
v 0.530141 0.560222 0.501279
v 0.530141 0.560222 0.001278
v 0.469920 0.439778 0.001278
v 0.469920 0.439778 0.501279
v 0.469920 0.560222 0.501279
v 0.469920 0.560222 0.001278
v 0.560252 0.530111 0.501279
v 0.439809 0.530111 0.501279
v 0.439809 0.530111 0.001278
v 0.560252 0.530111 0.001278
v 0.560252 0.469889 0.501279
v 0.439809 0.469889 0.501279
v 0.439809 0.469889 0.001278
v 0.560252 0.469889 0.001278
vt 0.625000 0.937500
vt 0.687500 0.000000
vt 0.312500 0.000000
vt 0.375000 0.937500
vt 0.312500 0.250000
vt 0.375000 0.312500
vt 0.625000 0.312500
vt 0.687500 0.250000
vt 0.625000 0.812500
vt 0.812500 0.000000
vt 0.187500 0.000000
vt 0.375000 0.812500
vt 0.187500 0.250000
vt 0.375000 0.437500
vt 0.625000 0.437500
vt 0.812500 0.250000
vt 0.375000 0.187500
vt 0.125000 0.187500
vt 0.375000 0.562500
vt 0.625000 0.562500
vt 0.875000 0.187500
vt 0.625000 0.187500
vt 0.375000 0.062500
vt 0.125000 0.062500
vt 0.375000 0.687500
vt 0.625000 0.687500
vt 0.875000 0.062500
vt 0.625000 0.062500
vn 0.948684 -0.316227 0.000000
vn 0.948684 -0.316227 0.000000
vn 0.316229 -0.948683 0.000000
vn 0.316229 -0.948683 0.000000
vn -0.316229 -0.948683 -0.000000
vn -0.316229 -0.948683 -0.000000
vn -0.948684 -0.316227 -0.000000
vn -0.948684 -0.316227 -0.000000
vn -0.000000 0.000000 1.000000
vn -0.000000 0.000000 1.000000
vn -0.000000 0.000000 1.000000
vn 0.316229 0.948683 0.000000
vn 0.316229 0.948683 0.000000
vn 0.948684 0.316227 0.000000
vn 0.948684 0.316227 0.000000
vn -0.316229 0.948683 -0.000000
vn -0.316229 0.948683 -0.000000
vn -0.948684 0.316227 -0.000000
vn -0.948684 0.316227 -0.000000
vn 0.000000 -0.000000 -1.000000
vn 0.000000 0.000000 -1.000000
vn 0.000000 0.000000 -1.000000
vn -0.000000 0.000000 1.000000
vn -0.000000 0.000000 1.000000
vn -0.000000 0.000000 1.000000
vn -0.000000 0.000000 1.000000
vn -0.000000 0.000000 1.000000
vn 0.000000 0.000000 -1.000000
vn 0.000000 -0.000000 -1.000000
vn 0.000000 -0.000000 -1.000000
vn 0.000000 0.000000 -1.000000
vn 0.000000 0.000000 -1.000000
s 1
g pasted__pasted__pasted__pasted__pCube2 pasted__pasted__pasted__group pasted__pasted__group4 pasted__group14 group21
usemtl initialShadingGroup
f 80/140/129 77/135/130 66/116/131 65/113/132
f 69/121/133 70/124/134 78/137/135 79/138/136
s 2
f 73/129/137 67/117/138 77/135/139
s 1
f 68/119/140 67/118/141 73/129/142 76/134/143
f 66/116/131 70/124/134 69/121/133 65/113/132
f 68/119/140 72/127/144 71/126/145 67/118/141
f 75/132/146 74/131/147 71/126/145 72/127/144
f 75/132/146 79/138/136 78/137/135 74/131/147
f 73/129/142 77/135/130 80/140/129 76/134/143
s 4
f 72/128/148 80/140/149 65/114/150
s 2
f 77/135/139 67/117/138 71/125/151
f 70/123/152 74/130/153 78/136/154
f 77/135/139 71/125/151 66/115/155
f 66/115/155 71/125/151 74/130/153
f 66/115/155 74/130/153 70/123/152
s 4
f 76/134/156 80/140/149 68/120/157
f 68/120/157 80/140/149 72/128/148
f 72/128/148 65/114/150 75/133/158
f 75/133/158 65/114/150 69/122/159
f 75/133/158 69/122/159 79/139/160
g default
v 0.530141 0.439778 0.500294
v 0.530141 0.439778 1.000294
v 0.530141 0.560222 1.000294
v 0.530141 0.560222 0.500294
v 0.469920 0.439778 0.500294
v 0.469920 0.439778 1.000294
v 0.469920 0.560222 1.000294
v 0.469920 0.560222 0.500294
v 0.560252 0.530111 1.000294
v 0.439809 0.530111 1.000294
v 0.439809 0.530111 0.500294
v 0.560252 0.530111 0.500294
v 0.560252 0.469889 1.000294
v 0.439809 0.469889 1.000294
v 0.439809 0.469889 0.500294
v 0.560252 0.469889 0.500294
vt 0.625000 0.937500
vt 0.687500 0.000000
vt 0.312500 0.000000
vt 0.375000 0.937500
vt 0.312500 0.250000
vt 0.375000 0.312500
vt 0.625000 0.312500
vt 0.687500 0.250000
vt 0.625000 0.812500
vt 0.812500 0.000000
vt 0.187500 0.000000
vt 0.375000 0.812500
vt 0.187500 0.250000
vt 0.375000 0.437500
vt 0.625000 0.437500
vt 0.812500 0.250000
vt 0.375000 0.187500
vt 0.125000 0.187500
vt 0.375000 0.562500
vt 0.625000 0.562500
vt 0.875000 0.187500
vt 0.625000 0.187500
vt 0.375000 0.062500
vt 0.125000 0.062500
vt 0.375000 0.687500
vt 0.625000 0.687500
vt 0.875000 0.062500
vt 0.625000 0.062500
vn 0.948684 -0.316227 0.000000
vn 0.948684 -0.316227 0.000000
vn 0.316229 -0.948683 0.000000
vn 0.316229 -0.948683 0.000000
vn -0.316229 -0.948683 -0.000000
vn -0.316229 -0.948683 -0.000000
vn -0.948684 -0.316227 -0.000000
vn -0.948684 -0.316227 -0.000000
vn -0.000000 0.000000 1.000000
vn -0.000000 0.000000 1.000000
vn -0.000000 0.000000 1.000000
vn 0.316229 0.948683 0.000000
vn 0.316229 0.948683 0.000000
vn 0.948684 0.316227 0.000000
vn 0.948684 0.316227 0.000000
vn -0.316229 0.948683 -0.000000
vn -0.316229 0.948683 -0.000000
vn -0.948684 0.316227 -0.000000
vn -0.948684 0.316227 -0.000000
vn 0.000000 -0.000000 -1.000000
vn 0.000000 0.000000 -1.000000
vn 0.000000 0.000000 -1.000000
vn -0.000000 0.000000 1.000000
vn -0.000000 0.000000 1.000000
vn -0.000000 0.000000 1.000000
vn -0.000000 0.000000 1.000000
vn -0.000000 0.000000 1.000000
vn 0.000000 0.000000 -1.000000
vn 0.000000 -0.000000 -1.000000
vn 0.000000 -0.000000 -1.000000
vn 0.000000 0.000000 -1.000000
vn 0.000000 0.000000 -1.000000
s 1
g pasted__pasted__pasted__pasted__pasted__pCube2 pasted__pasted__pasted__pasted__group pasted__pasted__pasted__group4 pasted__pasted__group14 pasted__group21 group22
usemtl initialShadingGroup
f 96/168/161 93/163/162 82/144/163 81/141/164
f 85/149/165 86/152/166 94/165/167 95/166/168
s 2
f 89/157/169 83/145/170 93/163/171
s 1
f 84/147/172 83/146/173 89/157/174 92/162/175
f 82/144/163 86/152/166 85/149/165 81/141/164
f 84/147/172 88/155/176 87/154/177 83/146/173
f 91/160/178 90/159/179 87/154/177 88/155/176
f 91/160/178 95/166/168 94/165/167 90/159/179
f 89/157/174 93/163/162 96/168/161 92/162/175
s 4
f 88/156/180 96/168/181 81/142/182
s 2
f 93/163/171 83/145/170 87/153/183
f 86/151/184 90/158/185 94/164/186
f 93/163/171 87/153/183 82/143/187
f 82/143/187 87/153/183 90/158/185
f 82/143/187 90/158/185 86/151/184
s 4
f 92/162/188 96/168/181 84/148/189
f 84/148/189 96/168/181 88/156/180
f 88/156/180 81/142/182 91/161/190
f 91/161/190 81/142/182 85/150/191
f 91/161/190 85/150/191 95/167/192
g default
v 0.399526 0.398625 0.601465
v 0.599526 0.398625 0.601465
v 0.399526 0.598625 0.601465
v 0.599526 0.598625 0.601465
v 0.399526 0.598625 0.401465
v 0.599526 0.598625 0.401465
v 0.399526 0.398625 0.401465
v 0.599526 0.398625 0.401465
vt 0.375000 0.000000
vt 0.625000 0.000000
vt 0.375000 0.250000
vt 0.625000 0.250000
vt 0.375000 0.500000
vt 0.625000 0.500000
vt 0.375000 0.750000
vt 0.625000 0.750000
vt 0.375000 1.000000
vt 0.625000 1.000000
vt 0.875000 0.000000
vt 0.875000 0.250000
vt 0.125000 0.000000
vt 0.125000 0.250000
vn 0.000000 0.000000 1.000000
vn 0.000000 0.000000 1.000000
vn 0.000000 0.000000 1.000000
vn 0.000000 0.000000 1.000000
vn 0.000000 1.000000 0.000000
vn 0.000000 1.000000 0.000000
vn 0.000000 1.000000 0.000000
vn 0.000000 1.000000 0.000000
vn 0.000000 0.000000 -1.000000
vn 0.000000 0.000000 -1.000000
vn 0.000000 0.000000 -1.000000
vn 0.000000 0.000000 -1.000000
vn 0.000000 -1.000000 0.000000
vn 0.000000 -1.000000 0.000000
vn 0.000000 -1.000000 0.000000
vn 0.000000 -1.000000 0.000000
vn 1.000000 0.000000 0.000000
vn 1.000000 0.000000 0.000000
vn 1.000000 0.000000 0.000000
vn 1.000000 0.000000 0.000000
vn -1.000000 0.000000 0.000000
vn -1.000000 0.000000 0.000000
vn -1.000000 0.000000 0.000000
vn -1.000000 0.000000 0.000000
s off
g pCube7
usemtl initialShadingGroup
f 97/169/193 98/170/194 100/172/195 99/171/196
f 99/171/197 100/172/198 102/174/199 101/173/200
f 101/173/201 102/174/202 104/176/203 103/175/204
f 103/175/205 104/176/206 98/178/207 97/177/208
f 98/170/209 104/179/210 102/180/211 100/172/212
f 103/181/213 97/169/214 99/171/215 101/182/216
